<mxfile host="app.diagrams.net" modified="2023-08-18T13:44:05.233Z" agent="Mozilla/5.0 (Windows NT 10.0; Win64; x64) AppleWebKit/537.36 (KHTML, like Gecko) Chrome/116.0.0.0 Safari/537.36" version="21.6.7" etag="9qf0rO3BppEzV0LXYJ56" type="github">
  <diagram name="Страница — 1" id="L6a3AOC5869j5MKnWDVW">
    <mxGraphModel>
      <root>
        <mxCell id="0" />
        <mxCell id="1" parent="0" />
      </root>
    </mxGraphModel>
  </diagram>
</mxfile>
